<?xml version="1.0" standalone="no"?>
<!DOCTYPE svg PUBLIC "-//W3C//DTD SVG 20010904//EN"
 "http://www.w3.org/TR/2001/REC-SVG-20010904/DTD/svg10.dtd">
<svg version="1.0" xmlns="http://www.w3.org/2000/svg"
 width="1200.000000pt" height="1200.000000pt" viewBox="0 0 1200.000000 1200.000000"
 preserveAspectRatio="xMidYMid meet">

<g transform="translate(0.000000,1200.000000) scale(0.100000,-0.100000)"
fill="#F6F6F6" stroke="none">
<path d="M3710 5990 c0 -613 3 -930 10 -930 7 0 10 317 10 930 0 613 -3 930
-10 930 -7 0 -10 -317 -10 -930z"/>
<path d="M2123 6638 c-4 -7 -7 -41 -6 -75 1 -43 -4 -72 -18 -99 -26 -53 -25
-128 4 -184 l22 -45 -41 -41 c-87 -87 -132 -239 -105 -362 l11 -51 -73 -73
c-100 -102 -139 -185 -161 -346 -6 -37 -3 -46 20 -67 66 -61 249 -95 514 -95
256 0 457 36 517 92 17 16 23 33 23 66 0 53 -25 152 -50 203 l-19 37 97 4
c152 5 212 48 212 150 0 75 -58 129 -170 157 -73 19 -100 32 -100 50 0 32 30
58 89 81 67 25 76 33 86 72 6 22 2 30 -20 44 -27 18 -28 17 -46 -5 -10 -12
-46 -36 -81 -54 -73 -37 -108 -81 -108 -137 0 -62 28 -86 139 -120 125 -39
159 -74 120 -124 -24 -30 -48 -36 -177 -40 -91 -3 -104 -1 -113 15 -5 10 -29
33 -52 51 -40 31 -43 35 -34 63 4 17 9 68 9 115 1 79 -2 92 -35 160 -19 41
-53 92 -75 113 l-39 38 24 47 c27 52 28 120 2 177 -7 17 -13 64 -13 107 -1 42
-4 79 -8 83 -12 13 -57 -4 -92 -35 -28 -25 -42 -30 -84 -30 -33 0 -54 5 -59
14 -10 16 -73 56 -90 56 -6 0 -15 -6 -20 -12z"/>
<path d="M6665 6504 c-138 -20 -231 -62 -323 -149 -81 -75 -152 -175 -191
-268 -125 -301 -84 -561 96 -613 119 -35 279 39 397 183 25 30 46 51 47 47 0
-5 0 -39 -1 -76 -1 -71 16 -147 36 -155 6 -2 38 4 70 15 55 18 59 21 56 48 -2
16 -4 70 -4 119 -1 77 10 142 75 448 42 197 77 361 77 365 0 5 -57 14 -127 21
-71 7 -139 14 -153 16 -14 1 -38 1 -55 -1z m128 -140 c15 -3 27 -9 27 -12 0
-11 -47 -231 -61 -287 -43 -177 -239 -420 -366 -455 -55 -16 -87 -6 -117 33
-29 39 -35 194 -11 287 37 148 140 308 246 383 84 59 162 73 282 51z"/>
<path d="M7611 6495 c-99 -22 -168 -62 -251 -145 -305 -304 -247 -803 102
-876 62 -13 80 -13 156 0 89 16 248 84 258 111 7 17 -35 115 -49 115 -6 0 -31
-13 -56 -30 -64 -41 -107 -57 -172 -65 -157 -19 -255 75 -266 257 -12 185 91
398 228 473 46 25 65 29 129 30 62 0 86 -5 135 -28 33 -15 67 -35 77 -44 10
-9 20 -14 22 -12 11 12 66 111 66 120 0 16 -89 67 -144 83 -80 23 -164 27
-235 11z"/>
<path d="M9650 6494 c-95 -25 -161 -65 -246 -149 -66 -65 -89 -96 -123 -166
-110 -228 -92 -462 45 -609 58 -62 127 -92 224 -98 153 -9 273 38 385 153 83
83 136 170 172 280 22 67 26 98 27 195 0 131 -18 192 -79 273 -86 112 -251
162 -405 121z m188 -140 c89 -37 132 -121 132 -257 0 -199 -103 -393 -246
-463 -43 -21 -70 -27 -122 -27 -74 0 -115 16 -157 61 -94 101 -86 364 15 522
92 143 257 215 378 164z"/>
<path d="M5003 6481 c-74 -25 -146 -76 -231 -162 -83 -84 -80 -90 -41 79 10
46 19 86 19 88 0 2 -10 2 -22 0 -13 -3 -49 -10 -80 -16 -70 -14 -55 26 -133
-355 -8 -38 -24 -113 -35 -165 -11 -52 -27 -126 -35 -165 -8 -38 -25 -121 -38
-182 l-24 -113 78 0 77 0 10 48 c6 26 20 92 32 147 66 315 68 322 146 432 84
118 250 243 323 243 37 0 68 -24 81 -65 13 -39 5 -103 -30 -265 -11 -47 -40
-184 -65 -304 -25 -121 -48 -223 -51 -228 -3 -4 31 -8 75 -8 l80 0 10 38 c5
20 13 55 17 77 3 22 14 76 24 120 10 44 26 116 35 160 10 44 27 98 38 120 82
164 290 355 388 355 38 0 77 -35 85 -75 8 -43 -4 -111 -82 -483 -35 -167 -64
-305 -64 -308 0 -2 35 -4 78 -4 l77 0 38 183 c21 100 49 234 63 297 75 345 74
426 -6 493 -37 32 -83 41 -162 34 -92 -8 -176 -55 -283 -159 -49 -49 -91 -88
-91 -88 -1 0 -4 31 -6 69 -6 87 -30 129 -88 159 -55 27 -133 29 -207 3z"/>
<path d="M8270 6472 c0 -4 -16 -81 -35 -172 -121 -563 -132 -648 -96 -719 30
-57 82 -98 136 -107 137 -20 249 26 374 153 l84 86 -7 -54 c-7 -57 7 -145 27
-173 11 -15 16 -15 67 0 86 25 91 30 79 62 -27 66 -12 186 66 551 41 195 75
361 75 368 0 10 -20 13 -74 13 -81 0 -78 3 -91 -70 -9 -52 -44 -214 -66 -306
-35 -151 -101 -264 -221 -380 -133 -130 -249 -159 -293 -75 -29 58 -25 85 84
596 23 105 44 200 47 213 6 21 4 22 -75 22 -44 0 -81 -3 -81 -8z"/>
</g>
</svg>
